PathFileType	4	(X/Y/Z)	RBDS018\RBDS018runT25.trc
DataRate	CameraRate	NumFrames	NumMarkers	Units	OrigDataRate	OrigDataStartFrame	OrigNumFrames
150.000000	150.000000	4	33	mm	150.000000	1125	4500
Frame#	Time	L.ASIS			L.Heel.Bottom			L.Heel.Lateral			L.Heel.Top			L.Iliac.Crest			L.MT1			L.MT5			L.PSIS			L.Shank.Bottom.Lateral			L.Shank.Bottom.Medial			L.Shank.Top.Lateral			L.Shank.Top.Medial			L.Thigh.Bottom.Lateral			L.Thigh.Bottom.Medial			L.Thigh.Top.Lateral			L.Thigh.Top.Medial			R.ASIS			R.ASY			R.Heel.Bottom			R.Heel.Lateral			R.Heel.Top			R.Iliac.Crest			R.MT1			R.MT5			R.PSIS			R.Shank.Bottom.Lateral			R.Shank.Bottom.Medial			R.Shank.Top.Lateral			R.Shank.Top.Medial			R.Thigh.Bottom.Lateral			R.Thigh.Bottom.Medial			R.Thigh.Top.Lateral			R.Thigh.Top.Medial			
		X1	Y1	Z1	X2	Y2	Z2	X3	Y3	Z3	X4	Y4	Z4	X5	Y5	Z5	X6	Y6	Z6	X7	Y7	Z7	X8	Y8	Z8	X9	Y9	Z9	X10	Y10	Z10	X11	Y11	Z11	X12	Y12	Z12	X13	Y13	Z13	X14	Y14	Z14	X15	Y15	Z15	X16	Y16	Z16	X17	Y17	Z17	X18	Y18	Z18	X19	Y19	Z19	X20	Y20	Z20	X21	Y21	Z21	X22	Y22	Z22	X23	Y23	Z23	X24	Y24	Z24	X25	Y25	Z25	X26	Y26	Z26	X27	Y27	Z27	X28	Y28	Z28	X29	Y29	Z29	X30	Y30	Z30	X31	Y31	Z31	X32	Y32	Z32	X33	Y33	Z33	

1126	7.500000000000001	2276.035170725016	1069.64823140302	915.9861999337406	2323.606537737725	49.13145897949661	980.8460644848258	2355.775652905082	48.5544792645658	933.8802711303675	2329.531793724626	96.49087142006847	963.3572723498656	2205.226043330618	1153.661744879364	871.9024270978639	2540.261996669284	93.2639583095049	1025.494613682748	2521.588117365494	56.27653293836643	919.169326993481	2106.485554869144	1109.538278994177	977.6304410315587	2353.674522839092	212.1655256350293	898.6776624680766	2323.541018897844	211.1113174266759	940.2318083460023	2333.447792021753	288.7305604215663	880.5745043077663	2302.358647804562	292.31321365324	923.996786375664	2315.7116770883	673.55010817895	848.7803166441365	2253.94871006625	657.0711513889129	884.0468117043929	2279.047866927538	775.3324720635125	832.0164787073904	2219.751900209697	759.7578757421434	865.3569708952913	2292.217089258223	1059.239748035757	1139.490151509483	1740.32315169771	172.9556974355769	1050.037494849383	1640.962212145879	343.2785381744654	1013.747881181741	1652.914355019852	328.4977037078559	1055.179727691504	1690.679146649109	345.2582584047398	1023.902044301972	2244.43855780702	1146.050005079886	1164.626286287369	1716.747000447465	131.3787073624114	997.0672590313135	1684.325363083452	159.3407571577781	1100.409907747377	2118.448636926494	1113.510488925804	1089.34008748334	1783.294305887252	358.4842138555538	1109.106482084644	1761.482982953369	393.0789016849488	1071.337243056144	1835.96971347034	417.0495706691038	1130.095317430699	1814.235599916412	449.5922552752818	1093.21078038442	2093.435128122147	665.5504005516071	1173.029049930951	2038.609115128706	690.8077782438709	1132.632218200327	2122.725071813888	770.1083979247577	1196.536608947139	2069.838041735046	792.871492146082	1159.808440775131	
1127	7.506666666666667	2276.238510325516	1066.762506369182	915.94717952352	2319.332451386502	47.8312937602097	984.7203094523786	2350.956546614831	46.34758186173924	937.3529105418328	2325.949111059334	94.88759539766863	966.8271409302113	2204.877995627901	1149.782476849453	871.7854124592146	2537.14243631606	88.64702583071904	1026.392546762302	2516.638972039827	52.26364649194602	920.2053025311304	2106.543544214753	1104.77045245822	978.1398666194635	2350.432537896147	208.7992188327038	900.9414563060078	2321.131707418657	208.3721251992222	943.1929750190614	2330.729804799126	285.5128743513445	882.704279043017	2300.581737890772	289.6769893732266	926.7894684426842	2315.946002517814	670.5483564929999	849.031445656001	2254.462075062082	653.8512533838203	884.673118325814	2278.769594606782	772.2192234058559	832.5018794697261	2219.813024286907	756.4073150070482	866.2339711248969	2293.237376425175	1056.916552803051	1139.473245675771	1733.616883730967	180.6826477231639	1050.240411372418	1640.144272255025	354.8431445583178	1015.502775371395	1651.908096610492	339.4171238250927	1056.713532939816	1689.988544507159	354.9540498254248	1024.91856873001	2244.502443833818	1143.570121160054	1164.552379454435	1707.889805135551	140.2620542265739	997.2061312700699	1677.448298135308	169.0721116793282	1101.109919713024	2119.09744747342	1109.572984478077	1089.7602195748	1783.889379092158	363.724037116455	1109.595912757096	1762.9121837042	399.4985189945066	1072.458166803346	1839.095572332789	420.0388378186282	1130.356213577403	1818.104814858789	453.721850649456	1094.089878313464	2101.017190386512	658.9808921204216	1171.990762616029	2045.597146448742	683.5776294827813	1131.964694621358	2128.64630846701	763.8411862088407	1195.806278750127	2075.179214032054	785.9217864818522	1159.584680209671	
1128	7.513333333333334	2276.278764434932	1063.526235575875	915.8634335272617	2312.556530307324	46.51522191797345	988.5513364966116	2343.6295282556	44.43901399568105	940.805367345171	2319.99221968795	93.36122391428789	970.6591347857155	2204.308235323476	1145.492224288699	871.6905740925074	2531.651682758162	83.13255330584228	1027.637318250994	2509.238397320067	48.5051106114703	921.257723981944	2106.507586441683	1099.13015058818	978.7582141578981	2345.867213807712	205.3317508261215	903.3636182949682	2317.193293668982	205.7656419120323	946.1083812731282	2327.220818494402	282.2583794753676	884.8295176633544	2297.854804584637	287.2183430511463	929.396771255665	2316.555487588877	667.1835167488944	849.2412321341893	2255.419113931625	650.1632771277627	885.2918012032105	2278.67355233215	768.6703515630575	832.9449772841812	2220.10490143043	752.5003845540193	867.06728675674	2294.254476822583	1054.093023232821	1139.430233711397	1728.08663845742	188.5366551730542	1050.552020863981	1640.203299386827	366.1359936457728	1017.671293505403	1651.874762747065	350.0736495286619	1058.624807358849	1690.109682540967	364.5025141539453	1026.289478711206	2244.422764686863	1140.455344426764	1164.643739752789	1700.27319908252	149.3819126705584	997.447176137279	1671.952345809251	178.7792514606856	1101.988935220185	2119.666074141028	1104.708271710708	1090.276427921882	1785.352711076791	368.8151220491568	1110.237325637974	1765.267355052627	405.7418728175081	1073.746128152021	1843.011563884046	422.7809134124984	1130.720714693933	1822.795737411283	457.5846818937808	1095.086572606523	2108.894480623026	651.8933592544539	1170.894847629246	2052.922564149658	675.7564012075131	1131.156427591901	2134.695289847951	757.0475665418686	1195.062603265568	2080.700725086497	778.3872016285009	1159.266363558496	
1129	7.52	2276.15405475989	1059.927628469406	915.7309817559909	2303.46418357727	45.16570798285457	992.2831744085643	2334.011035391741	42.89806241170501	944.2023579338978	2311.780981637003	91.91485986487419	974.8273188801188	2203.534399438494	1140.777499819164	871.6177170453866	2523.88024410721	77.03728776411066	1029.316671003175	2499.596763852467	45.24867391715586	922.4235465630526	2106.386864741647	1092.678460570734	979.504196304801	2340.126900099016	201.8682527696989	905.9309221351513	2311.820504053567	203.3809287918884	948.9093398261634	2323.06578453606	279.0354688339921	886.9132317639481	2294.259930087552	284.9957496842262	931.7269213510418	2317.488070619945	663.4362790791465	849.3527349130451	2256.786431927572	646.0186421003084	885.8861065296965	2278.730430915919	764.6604675379334	833.2598912889025	2220.601036425096	748.0426308215272	867.8030087588849	2295.279917166363	1050.741371973591	1139.335350636245	1723.776591107837	196.4258487047049	1050.996138848656	1641.210617002644	377.1020310445735	1020.177525392846	1652.855220446598	360.4097281123769	1060.853386554959	1691.118553746398	373.8401450424061	1027.998119932808	2244.258357391957	1136.670626711325	1164.90756043131	1693.968560038005	158.6200251923452	997.8203226559821	1667.838473532048	188.3647979020985	1103.026229844983	2120.165587261509	1098.934632914269	1090.908867418038	1787.698971068999	373.7158143995509	1111.027258061518	1768.567658934626	411.7492987032348	1075.177877234408	1847.704197402168	425.2572960716913	1131.188586525429	1828.31123848741	461.142095898929	1096.176391671524	2116.96484334251	644.4020417179831	1169.766350132076	2060.505896619692	667.461160536237	1130.20523027845	2140.792911909395	749.8365206769108	1194.312125046398	2086.336762626267	770.3823469143007	1158.837665309693	
